Coordinates
version=1
nRows=13
nColumns=63
inDegrees=yes

Units are S.I. units (second, meters, Newtons, ...)
If the header above contains a line with 'inDegrees', this indicates whether rotational values are in degrees (yes) or radians (no).

endheader
time	pelvis_tilt	pelvis_list	pelvis_rotation	pelvis_tx	pelvis_ty	pelvis_tz	hip_flexion_r	hip_adduction_r	hip_rotation_r	knee_angle_r	knee_angle_r_beta	ankle_angle_r	subtalar_angle_r	mtp_angle_r	hip_flexion_l	hip_adduction_l	hip_rotation_l	knee_angle_l	knee_angle_l_beta	ankle_angle_l	subtalar_angle_l	mtp_angle_l	L5_S1_Flex_Ext	L5_S1_Lat_Bending	L5_S1_axial_rotation	L4_L5_Flex_Ext	L4_L5_Lat_Bending	L4_L5_axial_rotation	L3_L4_Flex_Ext	L3_L4_Lat_Bending	L3_L4_axial_rotation	L2_L3_Flex_Ext	L2_L3_Lat_Bending	L2_L3_axial_rotation	L1_L2_Flex_Ext	L1_L2_Lat_Bending	L1_L2_axial_rotation	L1_T12_Flex_Ext	L1_T12_Lat_Bending	L1_T12_axial_rotation	Abs_r3	Abs_r2	Abs_r1	Abs_t1	Abs_t2	neck_flexion	neck_bending	neck_rotation	arm_flex_r	arm_add_r	arm_rot_r	elbow_flex_r	pro_sup_r	wrist_flex_r	wrist_dev_r	arm_flex_l	arm_add_l	arm_rot_l	elbow_flex_l	pro_sup_l	wrist_flex_l	wrist_dev_l
3.209302	1.064820	-2.335801	78.388994	0.042704	0.835592	0.693665	4.738965	-1.425141	9.459938	12.867168	0.224574	35.976175	11.044469	0.000000	-2.303560	1.507333	-7.018610	1.791028	0.031259	35.413446	-4.657205	0.000000	-0.107332	0.385723	2.859665	-0.199327	0.513012	3.038394	-0.176337	0.937848	3.038394	-0.122670	0.937848	2.502207	-0.099669	0.786567	2.323478	-0.061330	0.597485	2.144749	-0.766665	4.363379	15.904597	0.000000	0.000000	26.490634	-7.386274	3.619225	-0.788766	-16.555745	39.185138	22.583308	71.688008	-9.774243	-5.026906	16.181024	-11.522769	96.925920	23.425767	33.782772	-3.889254	-11.033778
3.232558	1.123539	-2.330019	78.379570	0.042523	0.835752	0.693116	4.645134	-1.404801	9.375204	12.724019	0.222076	35.936436	11.214866	0.000000	-2.403751	1.475746	-6.954889	1.686864	0.029441	35.336614	-4.797418	0.000000	-0.109783	0.397517	2.810612	-0.203878	0.528698	2.986276	-0.180362	0.966524	2.986276	-0.125471	0.966524	2.459286	-0.101944	0.810617	2.283623	-0.062730	0.615754	2.107959	-0.784168	4.496795	15.631783	0.000000	0.000000	26.554112	-7.461775	3.793554	-0.534304	-16.659340	39.726017	22.513633	70.984915	-9.660092	-4.876273	15.830113	-11.610814	95.418873	23.426932	34.928807	-3.339065	-10.629530
3.255814	1.179727	-2.294901	78.409939	0.042333	0.835987	0.692332	4.473690	-1.393076	9.322221	12.525066	0.218604	35.878945	11.319035	0.000000	-2.531333	1.443643	-6.916873	1.600739	0.027938	35.281646	-4.879063	0.000000	-0.113755	0.407536	2.756152	-0.211255	0.542023	2.928411	-0.186889	0.990884	2.928411	-0.130011	0.990884	2.411633	-0.105633	0.831048	2.239373	-0.065000	0.631274	2.067114	-0.812544	4.610133	15.328889	0.000000	0.000000	26.600665	-7.519771	3.929741	-0.337998	-16.745079	40.138895	22.486083	69.995004	-9.524148	-4.767394	15.381079	-11.683398	93.641664	23.368289	36.408839	-2.737803	-9.984505
3.279070	1.241815	-2.236524	78.432853	0.042151	0.836289	0.691362	4.254494	-1.384764	9.275801	12.302191	0.214714	35.819148	11.438139	0.000000	-2.706490	1.422923	-6.611206	1.479999	0.025831	35.154863	-5.322960	0.000000	-0.117552	0.417684	2.709201	-0.218307	0.555520	2.878526	-0.193127	1.015557	2.878526	-0.134351	1.015557	2.370551	-0.109159	0.851741	2.201226	-0.067169	0.646992	2.031901	-0.839665	4.724924	15.067764	0.000000	0.000000	26.616466	-7.585656	4.017052	-0.253248	-16.800265	40.163436	22.531098	69.137230	-9.350621	-4.671589	15.056651	-11.667576	93.075348	23.138938	36.710406	-2.125995	-9.485666
3.302326	1.306668	-2.154686	78.473018	0.041954	0.836642	0.690241	3.972820	-1.378343	9.281929	12.028013	0.209928	35.748838	11.484305	0.000000	-2.908544	1.401204	-6.378666	1.369399	0.023901	35.052635	-5.647534	0.000000	-0.120695	0.427097	2.661026	-0.224143	0.568038	2.827340	-0.198290	1.038443	2.827340	-0.137942	1.038443	2.328398	-0.112077	0.870935	2.162083	-0.068965	0.661573	1.995769	-0.862113	4.831402	14.799827	0.000000	0.000000	26.602262	-7.627818	4.054874	-0.246240	-16.828129	39.974663	22.621635	68.218902	-9.165981	-4.623187	14.712252	-11.591920	92.684231	22.817328	36.908194	-1.564098	-8.875522
3.325581	1.376374	-2.056104	78.506956	0.041815	0.837023	0.689064	3.668399	-1.364390	9.318027	11.753323	0.205134	35.683229	11.488863	0.000000	-3.129697	1.373014	-6.172208	1.266777	0.022109	34.943985	-5.942441	0.000000	-0.122539	0.435634	2.617930	-0.227568	0.579393	2.781551	-0.201320	1.059201	2.781551	-0.140050	1.059201	2.290689	-0.113790	0.888345	2.127068	-0.070019	0.674797	1.963447	-0.875287	4.927981	14.560141	0.000000	0.000000	26.559836	-7.671242	4.037355	-0.308391	-16.816495	39.573068	22.741456	67.301009	-8.988241	-4.605450	14.370156	-11.499270	92.458210	22.487223	37.073079	-1.086733	-8.227803
3.348837	1.433005	-1.951943	78.545533	0.041698	0.837397	0.687910	3.369371	-1.362668	9.356250	11.494388	0.200615	35.649713	11.483697	0.000000	-3.345482	1.354173	-6.097034	1.181332	0.020618	34.867732	-6.054540	0.000000	-0.121654	0.441334	2.572198	-0.225923	0.586975	2.732961	-0.199865	1.073060	2.732961	-0.139038	1.073060	2.250673	-0.112968	0.899969	2.089911	-0.069513	0.683627	1.929149	-0.868961	4.992463	14.305794	0.000000	0.000000	26.492850	-7.691181	3.965968	-0.377894	-16.792106	39.197376	22.858235	66.395935	-8.806592	-4.634259	13.997093	-11.403113	92.329836	22.149300	37.274536	-0.833999	-7.684762
3.372093	1.480754	-1.836670	78.573601	0.041641	0.837771	0.686879	3.074407	-1.353051	9.523080	11.252003	0.196384	35.608809	11.301217	0.000000	-3.568154	1.347068	-5.848726	1.089406	0.019014	34.740340	-6.396241	0.000000	-0.119999	0.444206	2.535860	-0.222850	0.590793	2.694351	-0.197147	1.080041	2.694351	-0.137147	1.080041	2.218877	-0.111431	0.905824	2.060386	-0.068568	0.688074	1.901895	-0.857142	5.024942	14.103691	0.000000	0.000000	26.398110	-7.701484	3.800023	-0.434649	-16.773181	39.087932	22.946117	65.206194	-8.693245	-4.783691	13.714908	-11.287075	92.743743	21.816375	37.191728	-0.810855	-7.274143
3.395349	1.512904	-1.715466	78.591830	0.041633	0.838129	0.686054	2.810178	-1.355606	9.668191	11.053925	0.192927	35.587101	11.143347	0.000000	-3.774867	1.351058	-5.640395	1.013242	0.017684	34.623441	-6.684952	0.000000	-0.118011	0.443747	2.511842	-0.219159	0.590184	2.668833	-0.193881	1.078928	2.668833	-0.134875	1.078928	2.197862	-0.109585	0.904890	2.040872	-0.067432	0.687365	1.883882	-0.842944	5.019760	13.970114	0.000000	0.000000	26.279966	-7.715143	3.542404	-0.464940	-16.765158	39.292376	22.991697	63.801498	-8.641033	-5.061073	13.507573	-11.164532	93.438728	21.496634	37.059725	-0.975579	-6.964741
3.418605	1.530189	-1.598686	78.602956	0.041673	0.838450	0.685461	2.586289	-1.360010	9.844781	10.902584	0.190286	35.562701	10.933567	0.000000	-3.952692	1.361606	-5.512294	0.952687	0.016628	34.540204	-6.859850	0.000000	-0.115495	0.440247	2.505022	-0.214485	0.585529	2.661586	-0.189746	1.070417	2.661586	-0.131999	1.070417	2.191894	-0.107248	0.897752	2.035330	-0.065994	0.681943	1.878766	-0.824967	4.980164	13.932179	0.000000	0.000000	26.155209	-7.727353	3.207249	-0.539279	-16.739286	39.388425	23.044486	62.700394	-8.632787	-5.351984	13.373886	-11.050614	94.250082	21.217006	36.995678	-1.302008	-6.718844
3.441860	1.529016	-1.494802	78.644640	0.041723	0.838720	0.685107	2.407710	-1.372811	9.992940	10.800611	0.188506	35.532395	10.706727	0.000000	-4.084725	1.378025	-5.455554	0.915109	0.015972	34.503761	-6.894658	0.000000	-0.112198	0.433054	2.507650	-0.208364	0.575962	2.664378	-0.184331	1.052928	2.664378	-0.128232	1.052928	2.194194	-0.104188	0.883084	2.037466	-0.064110	0.670801	1.880738	-0.801423	4.898797	13.946798	0.000000	0.000000	26.040519	-7.711326	2.818182	-0.642860	-16.701858	39.423882	23.101055	61.895558	-8.670077	-5.651738	13.303470	-10.956437	95.114809	20.972867	37.002542	-1.747716	-6.517507
3.465116	1.500086	-1.413695	78.668042	0.041848	0.838929	0.685021	2.303700	-1.401539	10.111957	10.771005	0.187989	35.502329	10.530584	0.000000	-4.163598	1.410660	-5.470989	0.897999	0.015673	34.503144	-6.849915	0.000000	-0.107939	0.421272	2.525440	-0.200453	0.560292	2.683280	-0.177333	1.024282	2.683280	-0.123363	1.024282	2.209760	-0.100232	0.859059	2.051920	-0.061676	0.652551	1.894080	-0.770997	4.765518	14.045740	0.000000	0.000000	25.951767	-7.653839	2.404514	-0.760290	-16.652245	39.377036	23.161365	61.486281	-8.759059	-5.940928	13.291852	-10.880793	96.052225	20.726998	37.058910	-2.226575	-6.353010
3.488372	1.454234	-1.361480	78.742223	0.041965	0.839074	0.685160	2.253789	-1.435583	10.177010	10.783277	0.188204	35.459280	10.357862	0.000000	-4.177799	1.442020	-5.577724	0.911114	0.015902	34.558088	-6.601455	0.000000	-0.102214	0.406389	2.540673	-0.189822	0.540497	2.699465	-0.167928	0.988094	2.699465	-0.116821	0.988094	2.223089	-0.094916	0.828708	2.064297	-0.058405	0.629496	1.905505	-0.730105	4.597151	14.130463	0.000000	0.000000	25.902853	-7.557614	1.982271	-0.874018	-16.599532	39.293247	23.227738	61.374094	-8.868924	-6.250022	13.309129	-10.848193	96.939023	20.518087	37.180263	-2.732081	-6.160839
